# xmcd CD database file
#
# Track frame offsets:
#	150
#	25987
#	34862
#
# Disc length: 852 seconds
#
# Revision: 0
# Processed by: cddbd v1.5.1PL2 Copyright (c) Steve Scherf et al.
# Submitted via: CDex 1.60beta1
#
DISCID=1d035203
DTITLE=千代紙。 - 小雪 -White Reception-
DYEAR=1900
DGENRE=未分類 (日本)
TTITLE0=小雪 -White Reception-
TTITLE1=A place of happiness
TTITLE2=幸せの在り処
EXTD=
EXTT0=
EXTT1=
EXTT2=
PLAYORDER=
